<svg width="0" height="0" class="hidden">
  <symbol xmlns="http://www.w3.org/2000/svg" viewBox="0 0 360 359.97" id="instagram">
    <path d="M180 30.01c-40.734 0-45.84.26-61.837.918-15.965.729-26.846 3.227-36.386 6.936-9.864 3.832-18.262 8.983-26.6 17.322-8.339 8.339-13.442 16.691-17.274 26.554-3.71 9.54-6.255 20.467-6.983 36.431-.732 15.997-.92 21.104-.92 61.837 0 40.736.188 45.84.92 61.837.729 15.965 3.274 26.846 6.983 36.387 3.832 9.863 8.935 18.215 17.274 26.554 8.338 8.338 16.736 13.485 26.6 17.32 9.54 3.706 20.421 6.254 36.386 6.983 15.997.73 21.103.87 61.837.87s45.84-.235 61.837-.87c15.965-.73 26.892-3.277 36.432-6.984 9.863-3.834 18.216-8.98 26.554-17.32 8.339-8.338 13.442-16.69 17.274-26.553 3.709-9.54 6.255-20.422 6.983-36.387.732-15.997.92-21.101.92-61.837 0-40.733-.188-45.84-.92-61.837-.729-15.964-3.274-26.89-6.983-36.43-3.832-9.864-8.935-18.216-17.274-26.555-8.338-8.339-16.69-13.49-26.554-17.322-9.54-3.709-20.467-6.207-36.432-6.936-15.997-.73-21.103-.918-61.837-.918zm0 27.013c40.048 0 44.78.235 60.597.87 14.623.66 22.601 3.138 27.886 5.192 7.002 2.721 11.98 5.963 17.229 11.21 5.248 5.248 8.49 10.228 11.21 17.228 2.053 5.285 4.523 13.264 5.19 27.885.72 15.817.873 20.552.873 60.598 0 40.049-.164 44.784-.872 60.598-.668 14.623-3.138 22.555-5.192 27.84-2.72 7-5.96 12.022-11.21 17.273-5.248 5.247-10.226 8.489-17.228 11.21-5.285 2.047-13.263 4.481-27.886 5.147-15.814.729-20.546.87-60.597.87s-44.783-.235-60.597-.87c-14.623-.659-22.555-3.093-27.84-5.147-7.002-2.721-12.026-5.963-17.275-11.21-5.247-5.25-8.488-10.273-11.21-17.273-2.053-5.285-4.477-13.217-5.145-27.84-.72-15.814-.872-20.55-.872-60.598 0-40.046.164-44.781.872-60.598.668-14.62 3.092-22.6 5.146-27.885 2.72-7 5.962-11.98 11.21-17.228 5.248-5.247 10.272-8.489 17.273-11.21 5.286-2.047 13.218-4.524 27.841-5.192 15.816-.729 20.55-.87 60.597-.87zm80.076 24.9c-9.94 0-18.009 8.069-18.009 18.01 0 9.94 8.07 18.008 18.01 18.008 9.94 0 18.008-8.068 18.008-18.009 0-9.94-8.068-18.008-18.009-18.008zM180 102.965c-42.536 0-76.998 34.51-76.998 77.044 0 42.538 34.462 76.997 76.998 76.997s77.044-34.46 77.044-76.997c0-42.535-34.508-77.044-77.044-77.044zm0 27.06c27.612 0 49.984 22.374 49.984 49.984 0 27.613-22.372 49.985-49.984 49.985-27.612 0-49.984-22.372-49.984-49.985 0-27.61 22.372-49.984 49.984-49.984z"></path>
  </symbol>
  <symbol xmlns="http://www.w3.org/2000/svg" viewBox="0 0 485 485" id="linkedin">
    <path d="M89.016 189.906h67.507v203.098H89.016zm33.308-27.718h.446c23.55 0 38.195-15.602 38.195-35.102-.445-19.93-14.645-35.09-37.754-35.09-23.106 0-38.211 15.16-38.211 35.09 0 19.5 14.68 35.102 37.324 35.102zm139.074 230.816v-113.43c0-6.086.465-12.117 2.243-16.457 4.886-12.148 15.976-24.691 34.64-24.691 24.438 0 34.196 18.629 34.196 45.918V393H400V276.535c0-62.379-33.309-91.398-77.742-91.398-35.871 0-51.887 19.742-60.86 33.547v.664h-.441c.117-.22.309-.442.441-.664v-28.778h-67.535c.907 19.051 0 203.094 0 203.094h67.535zm0 0"></path>
    <path d="M0 0v485h485V0zm455 455H30V30h425zm0 0"></path>
  </symbol>
  <symbol xmlns="http://www.w3.org/2000/svg" viewBox="0 0 304.36 304.36" id="vk">
    <path d="M261.945 175.576c10.096 9.857 20.752 19.131 29.807 29.982 4 4.822 7.787 9.798 10.684 15.394 4.105 7.955.387 16.709-6.746 17.184l-44.34-.02c-11.436.949-20.559-3.655-28.23-11.474-6.139-6.253-11.824-12.908-17.727-19.372-2.42-2.642-4.953-5.128-7.979-7.093-6.053-3.929-11.307-2.726-14.766 3.587-3.523 6.421-4.322 13.531-4.668 20.687-.475 10.441-3.631 13.186-14.119 13.664-22.414 1.057-43.686-2.334-63.447-13.641-17.422-9.968-30.932-24.04-42.691-39.971-22.895-31.021-40.428-65.108-56.186-100.15C-2.01 76.458.584 72.22 9.295 72.07c14.465-.281 28.928-.261 43.41-.02 5.879.086 9.771 3.458 12.041 9.012 7.826 19.243 17.402 37.551 29.422 54.521 3.201 4.518 6.465 9.036 11.113 12.216 5.142 3.521 9.057 2.354 11.476-3.374 1.535-3.632 2.207-7.544 2.553-11.434 1.146-13.383 1.297-26.743-.713-40.079-1.234-8.323-5.922-13.711-14.227-15.286-4.238-.803-3.607-2.38-1.555-4.799 3.564-4.172 6.916-6.769 13.598-6.769h50.111c7.889 1.557 9.641 5.101 10.721 13.039l.043 55.663c-.086 3.073 1.535 12.192 7.07 14.226 4.43 1.448 7.35-2.096 10.008-4.905 11.998-12.734 20.561-27.783 28.211-43.366 3.395-6.852 6.314-13.968 9.143-21.078 2.096-5.276 5.385-7.872 11.328-7.757l48.229.043c1.43 0 2.877.021 4.262.258 8.127 1.385 10.354 4.881 7.844 12.817-3.955 12.451-11.65 22.827-19.174 33.251-8.043 11.129-16.645 21.877-24.621 33.072-7.328 10.223-6.746 15.376 2.357 24.255zm0 0" fill-rule="evenodd" clip-rule="evenodd"></path>
  </symbol>
</svg>